<svg width="129" height="128" viewBox="0 0 129 128" fill="none" xmlns="http://www.w3.org/2000/svg">
<path d="M121.908 36.5684C120.991 34.6516 119.989 32.7774 118.902 30.9671C107.692 12.4166 87.3181 0 64.0454 0C40.7726 0 20.3983 12.4166 9.18822 30.9671C8.1013 32.7774 7.07833 34.6516 6.18322 36.5684C2.21919 44.8745 0.0240479 54.1817 0.0240479 64C0.0240479 70.4532 0.983088 76.6722 2.75199 82.5291H73.8702C81.095 82.5291 81.095 79.377 81.095 77.6732C81.095 72.8173 76.4063 72.8173 73.8702 72.8173H44.0547V55.1827H71.1423C76.7686 55.1827 77.7703 53.9048 77.7703 50.3268C77.7703 46.7488 76.7686 45.4709 71.1423 45.4709H28.5395V27.8363H71.1423C84.5262 27.8363 95.4167 37.9314 95.4167 50.3268C95.4167 54.5012 94.1379 58.5903 91.7936 62.1258C96.2052 66.3002 98.6987 71.8163 98.6987 77.6732C98.6987 90.0686 87.5525 100.164 73.8276 100.164H11.1702C12.1506 101.591 13.1949 102.975 14.2818 104.317C24.0001 116.265 37.9381 124.656 53.8369 127.191C57.1403 127.723 60.5502 128 64.0027 128C67.4553 128 70.8652 127.723 74.1686 127.191C90.0673 124.656 104.005 116.286 113.724 104.317C116.92 100.377 119.67 96.0532 121.865 91.4316C125.829 83.1255 128.024 73.8183 128.024 64C128.024 54.1817 125.872 44.8745 121.908 36.5684Z" fill="#F39E12"/>
</svg>
