<svg width="512" height="512" viewBox="0 0 512 512" fill="none" xmlns="http://www.w3.org/2000/svg">
<path d="M487.558 146.274C483.892 138.606 479.885 131.109 475.538 123.868C430.697 49.6665 349.2 0 256.109 0C163.018 0 81.5212 49.6665 36.6807 123.868C32.3331 131.109 28.2412 138.606 24.6607 146.274C8.8046 179.498 0.0240479 216.727 0.0240479 256C0.0240479 281.813 3.86021 306.689 10.9358 330.116H295.409C324.308 330.116 324.308 317.508 324.308 310.693C324.308 291.269 305.553 291.269 295.409 291.269H176.147V220.731H284.497C307.002 220.731 311.009 215.619 311.009 201.307C311.009 186.995 307.002 181.884 284.497 181.884H114.086V111.345H284.497C338.033 111.345 381.594 151.726 381.594 201.307C381.594 218.005 376.48 234.361 367.102 248.503C384.749 265.201 394.723 287.265 394.723 310.693C394.723 360.274 350.138 400.655 295.238 400.655H44.6088C48.5302 406.363 52.7074 411.9 57.055 417.267C95.9281 465.06 151.68 498.625 215.275 508.763C228.489 510.892 242.129 512 255.939 512C269.749 512 283.389 510.892 296.602 508.763C360.197 498.625 415.949 465.145 454.823 417.267C467.61 401.507 478.607 384.213 487.387 365.726C503.244 332.502 512.024 295.273 512.024 256C512.024 216.727 503.414 179.498 487.558 146.274Z" fill="#F39E12"/>
</svg>
