<svg xmlns="http://www.w3.org/2000/svg" viewBox="0 0 180 180">
  <path fill="currentColor" d="M171.423 51.4243C170.134 48.7288 168.725 46.0932 167.197 43.5474C151.433 17.4609 122.781 0 90.054 0C57.3268 0 28.6754 17.4609 12.9112 43.5474C11.3827 46.0932 9.94413 48.7288 8.68539 51.4243C3.11096 63.1048 0.0240479 76.193 0.0240479 90C0.0240479 99.0749 1.3727 107.82 3.86021 116.057H103.87C114.03 116.057 114.03 111.624 114.03 109.228C114.03 102.399 107.437 102.399 103.87 102.399H61.9421V77.6007H100.034C107.946 77.6007 109.355 75.8037 109.355 70.772C109.355 65.7404 107.946 63.9434 100.034 63.9434H40.1239V39.1448H100.034C118.855 39.1448 134.17 53.3411 134.17 70.772C134.17 76.6423 132.372 82.3927 129.075 87.3644C135.279 93.2346 138.785 100.992 138.785 109.228C138.785 126.659 123.111 140.855 103.81 140.855H15.6984C17.077 142.862 18.5455 144.809 20.074 146.696C33.7403 163.497 53.3407 175.298 75.6984 178.862C80.3437 179.611 85.1389 180 89.9941 180C94.8492 180 99.6444 179.611 104.29 178.862C126.647 175.298 146.248 163.527 159.914 146.696C164.41 141.155 168.276 135.075 171.363 128.576C176.937 116.895 180.024 103.807 180.024 90C180.024 76.193 176.997 63.1048 171.423 51.4243Z"/>
</svg>