<svg width="28" height="28" viewBox="0 0 28 28" fill="none" xmlns="http://www.w3.org/2000/svg">
<path d="M10.5234 20V14.8594H6.02344V20H3.64062V8.48438H6.02344V12.875H10.5234V8.48438H12.9141V20H10.5234ZM22.0312 15.5625V8.48438H24.4766V15.5625C24.4766 16.7865 24.2865 17.7396 23.9062 18.4219C23.1979 19.6719 21.8464 20.2969 19.8516 20.2969C17.8568 20.2969 16.5026 19.6719 15.7891 18.4219C15.4089 17.7396 15.2188 16.7865 15.2188 15.5625V8.48438H17.6641V15.5625C17.6641 16.3542 17.7578 16.9323 17.9453 17.2969C18.237 17.9427 18.8724 18.2656 19.8516 18.2656C20.8255 18.2656 21.4583 17.9427 21.75 17.2969C21.9375 16.9323 22.0312 16.3542 22.0312 15.5625Z" fill="#e6e6e6"/>
</svg>
